<svg id="Layer_1" data-name="Layer 1" xmlns="http://www.w3.org/2000/svg" viewBox="0 0 144 40.44"><polygon points="24.19 0.08 0 11.28 6.03 34.22 10.62 33.66 9.35 19.24 10.86 18.57 13.46 33.31 21.3 32.35 19.91 16.43 21.4 15.76 24.26 31.98 32.19 31.01 30.66 13.56 32.17 12.89 35.3 30.63 43.15 29.66 43.15 4.83 24.19 0.08" fill="#f1f5f1"/><polygon points="24.76 34.87 25.16 37.13 43.15 40.13 43.15 32.61 24.77 34.87 24.76 34.87" fill="#f1f5f1"/><path d="M60.16,30.16v3.1H64a3.6,3.6,0,0,1-.47,1.79,3.12,3.12,0,0,1-1.37,1.25,5,5,0,0,1-2.18.44,4.17,4.17,0,0,1-2.45-.68,4.39,4.39,0,0,1-1.58-2,8,8,0,0,1-.55-3.17A7.47,7.47,0,0,1,56,27.76a4.4,4.4,0,0,1,1.59-2,4.24,4.24,0,0,1,2.4-.68,4.56,4.56,0,0,1,1.32.17,3.46,3.46,0,0,1,1.06.51,3.53,3.53,0,0,1,.78.81,4.44,4.44,0,0,1,.49,1.09h4.19a6.59,6.59,0,0,0-2.53-4.48,8.35,8.35,0,0,0-2.43-1.29,9.57,9.57,0,0,0-3-.46,9.12,9.12,0,0,0-3.43.64,8,8,0,0,0-2.78,1.86,8.36,8.36,0,0,0-1.86,3,10.92,10.92,0,0,0-.67,4,10.67,10.67,0,0,0,1.11,5,7.86,7.86,0,0,0,3.11,3.25,9.68,9.68,0,0,0,8.77.21A6.89,6.89,0,0,0,67,36.77a8.17,8.17,0,0,0,1-4.22V30.16Z" fill="#f1f5f1"/><polygon points="112.82 40.16 112.82 21.68 125.49 21.68 125.49 25.1 117 25.1 117 29.21 123.86 29.21 123.86 32.63 117 32.63 117 36.74 125.51 36.74 125.51 40.16 112.82 40.16" fill="#f1f5f1"/><path d="M137.78,27.11a2.24,2.24,0,0,0-.87-1.63,3.51,3.51,0,0,0-2.13-.58,4,4,0,0,0-1.53.24,2.14,2.14,0,0,0-.94.68,1.64,1.64,0,0,0-.33,1,1.5,1.5,0,0,0,.2.81,1.55,1.55,0,0,0,.59.6,3.76,3.76,0,0,0,.9.44,8.74,8.74,0,0,0,1.14.32l1.62.37a12.85,12.85,0,0,1,2.32.76,6.85,6.85,0,0,1,1.76,1.15,4.67,4.67,0,0,1,1.12,1.56,5.44,5.44,0,0,1-.47,5,5.61,5.61,0,0,1-2.49,1.92,10,10,0,0,1-3.9.68,10.47,10.47,0,0,1-4-.69,5.67,5.67,0,0,1-2.63-2.08,6.15,6.15,0,0,1-1-3.46h4a2.61,2.61,0,0,0,1.73,2.44,4.43,4.43,0,0,0,1.77.3,4.32,4.32,0,0,0,1.63-.26,2.38,2.38,0,0,0,1.06-.74,1.86,1.86,0,0,0,.39-1.09,1.58,1.58,0,0,0-.35-1,2.76,2.76,0,0,0-1-.69,11.28,11.28,0,0,0-1.68-.53l-2-.47A8.34,8.34,0,0,1,129,30.38a4.14,4.14,0,0,1-1.36-3.29,4.82,4.82,0,0,1,.91-3,6.06,6.06,0,0,1,2.53-2,9.07,9.07,0,0,1,3.68-.71,8.65,8.65,0,0,1,3.65.71,5.78,5.78,0,0,1,2.43,2,5.34,5.34,0,0,1,.88,3Z" fill="#f1f5f1"/><polygon points="109.85 40.16 105.71 40.16 105.71 26.11 105.29 26.11 101.12 40.16 96.99 40.16 92.93 26.11 92.4 26.11 92.4 40.16 88.27 40.16 88.27 21.68 95.29 21.68 98.84 34.07 99.27 34.07 102.81 21.68 109.85 21.68 109.85 40.16" fill="#f1f5f1"/><path d="M81.76,40.16h4.48L80,21.69H74.36L68.15,40.16h4.48l1.21-4h6.72Zm-7-7.27,2-6.78h.76l2,6.78Z" fill="#f1f5f1"/><path d="M143,23.64a1,1,0,0,1-1-1,1,1,0,0,1,.07-.33,1.06,1.06,0,0,1,.21-.31,1,1,0,0,1,.31-.21,1,1,0,0,1,.76,0,1,1,0,0,1,.52.52.92.92,0,0,1,0,.76,1,1,0,0,1-.52.52A1,1,0,0,1,143,23.64Zm0-.27a.77.77,0,0,0,.36-.09.69.69,0,0,0,.27-.93.73.73,0,0,0-.27-.28.7.7,0,0,0-1,.18l0,.07a.7.7,0,0,0,0,.71.72.72,0,0,0,.24.25.74.74,0,0,0,.36.09Zm-.36-.28v-.9h.44a.48.48,0,0,1,.17,0,.35.35,0,0,1,.11.1.31.31,0,0,1,0,.32.23.23,0,0,1-.12.1.25.25,0,0,1-.17,0h-.29v-.18h.31a.14.14,0,0,0,0-.09.06.06,0,0,0-.09-.09h-.13v.72Zm.59-.41.2.41h-.27l-.18-.41Z" fill="#f1f5f1"/><rect x="69.18" y="0.25" width="4.18" height="18.48" fill="#f1f5f1"/><path d="M93.19,9.49A10.53,10.53,0,0,1,92,14.63a7.92,7.92,0,0,1-3.13,3.23,9.46,9.46,0,0,1-8.89,0,7.92,7.92,0,0,1-3.13-3.23A10.69,10.69,0,0,1,75.7,9.48a10.69,10.69,0,0,1,1.16-5.15A7.94,7.94,0,0,1,80,1.11a9.46,9.46,0,0,1,8.89,0A7.87,7.87,0,0,1,92,4.34a10.46,10.46,0,0,1,1.16,5.15m-4.25,0a8.2,8.2,0,0,0-.55-3.18,4.2,4.2,0,0,0-1.55-2,4.53,4.53,0,0,0-4.76,0,4.33,4.33,0,0,0-1.56,2,9.51,9.51,0,0,0,0,6.36,4.22,4.22,0,0,0,1.56,2,4.53,4.53,0,0,0,4.76,0,4.2,4.2,0,0,0,1.55-2,8.2,8.2,0,0,0,.55-3.18" fill="#f1f5f1"/><path d="M60.4,12.29l2.15,6.44h4.58l-2.38-6.94H61.51l-.2-.6a6.83,6.83,0,0,0,2.61-.94,4.92,4.92,0,0,0,2.14-4h0a5.91,5.91,0,0,0-.79-3.13A5.43,5.43,0,0,0,63,1,7.92,7.92,0,0,0,59.39.26H51.93V18.73h4.18V12.29Zm-.07-3.83a4.72,4.72,0,0,1-1.78.29H56.11V3.64h2.43A4.75,4.75,0,0,1,60.32,4a2.24,2.24,0,0,1,1.07.9,2.44,2.44,0,0,1,.37,1.39,2.36,2.36,0,0,1-.36,1.35,2.23,2.23,0,0,1-1.07.87" fill="#f1f5f1"/><path d="M93.58.25V3.68h7.18l.19.6a6.84,6.84,0,0,0-2.55.91V18.73h4.13V3.67h4.81V.24Z" fill="#f1f5f1"/></svg>